<svg id="Layer_1" data-name="Layer 1" xmlns="http://www.w3.org/2000/svg" width="219.88mm" height="154.09mm" viewBox="0 0 623.29 436.78"><defs><style>.cls-1{fill:#ffb836;}.cls-2{fill:#fff;}</style></defs><title>logo-cmyk</title><path class="cls-1" d="M447.4,85a176,176,0,0,0-50.66,7.43A218.05,218.05,0,0,0,218.39,0C97.78,0,0,97.78,0,218.39S97.78,436.78,218.39,436.78h229A175.89,175.89,0,1,0,447.4,85Z"/><path class="cls-2" d="M57,303.39a17.67,17.67,0,0,1-17.74-17.56v-104a17.94,17.94,0,0,1,17.92-17.92h2.3c8.36,0,13.15,4.53,16.73,9l49.71,64.35V181.26a17.65,17.65,0,0,1,35.31,0V285.48a17.46,17.46,0,0,1-17.57,17.74H142.8c-8.59,0-13.5-4.94-16.83-9.25L74.58,227.44v58.39A17.59,17.59,0,0,1,57,303.39Z"/><path class="cls-2" d="M237.08,304.46c-37.41,0-59.74-23-59.74-61.52v-61.5a17.83,17.83,0,0,1,35.66,0v60.62c0,12.93,4.24,28.34,24.44,28.34,16.1,0,24.27-9.24,24.27-27.46v-61.5a17.83,17.83,0,0,1,35.66,0v60.44C297.36,281.06,274.82,304.46,237.08,304.46Z"/><path class="cls-2" d="M331.35,302.51a17.72,17.72,0,0,1-17.91-17.92V182.5a17.72,17.72,0,0,1,17.91-17.92H376c15.91,0,28.81,4.5,37.33,13a34.75,34.75,0,0,1,10.36,25.46c0,10.91-3.63,19.8-10.82,26.69,11.91,7.09,17.73,17.46,17.73,31.45,0,25.62-20.24,41.31-52.83,41.31H331.35ZM378,269.33c11.27,0,17-3.39,17-10.09,0-2.76,0-10.09-18.6-10.09H348.74v20.17H378Zm-6.38-52.46c10.92,0,16.46-3.33,16.46-9.91,0-7.66-8.09-9.2-14.87-9.2H348.74v19.11h22.85Z"/><path class="cls-2" d="M507.51,304.63c-40.83,0-71.61-30.41-71.61-70.74s31.62-71.44,72-71.44c40.84,0,71.62,30.41,71.62,70.74S547.88,304.63,507.51,304.63Zm0-108.29c-19.89,0-34.9,15.84-34.9,36.85,0,21.46,15.16,37.38,35.25,37.38,19.9,0,34.9-15.77,34.9-36.68C542.77,212.34,527.62,196.34,507.51,196.34Z"/></svg>